<svg xmlns="http://www.w3.org/2000/svg" viewBox="0 0 998.01 188.07"><defs><style>.cls-1{fill:#242424;}.cls-2{fill:#84b73c;}</style></defs><title>Asset 3</title><g id="Layer_2" data-name="Layer 2"><g id="Layer_1-2" data-name="Layer 1"><g id="Y5JhY5.tif"><path class="cls-1" d="M58,0c.27,2,2.2,2.25,3.49,3Q105,30,148.6,56.89a50.6,50.6,0,0,1,17.62,18c7.54,13.2,7,26.4-.68,39.34a49.6,49.6,0,0,1-6,7.94c-13.3,14.53-13.61,14.53-30,4.12-4.07-2.59-8.18-5.13-12.34-7.58-2.11-1.25-2-2.12-.09-3.53a43,43,0,0,0,6.37-5.57c9.52-10.46,8.79-23.31-2-32.47C114.29,71.12,105.9,66.88,98,62,66.72,42.55,35.36,23.3,4.1,3.88,2.57,2.94-.19,2.9,0,0Z"/><path class="cls-2" d="M216,0c.4,2.38-1.5,3.11-3,4-21.21,13.1-42.47,26.11-63.62,39.31-3.17,2-5.57,1.81-8.58-.19-6.77-4.51-13.62-8.95-20.7-13-4-2.29-2.79-3.44.15-5.23q17.25-10.5,34.39-21.16c1.63-1,3.76-1.56,4.36-3.8Z"/><path class="cls-2" d="M998,74c-2,.08-3-.77-3-2.93a13.31,13.31,0,0,0-1.17-6.92c-1.18,3-2,5.19-2.87,7.33-.37.91-.72,2-1.87,2.11-1.59.14-1.75-1.29-2.11-2.33-.73-2.18-1.36-4.4-2.21-7.18-1.94,2.29-1.06,4.51-1.42,6.44-.24,1.25.09,3.07-1.78,2.93-1.61-.12-1.09-1.8-1-2.87.21-3.65.53-7.29.77-10.94.08-1.27.38-2.3,1.87-2.48s2.44.6,3,2c1.05,2.55,1.35,5.43,2.89,7.5C993.22,64.71,989,54.89,998,58Z"/><path class="cls-2" d="M209.36,187.07c-2.67,1.33-4.68.91-6.61.91-14.67,0-29.33-.07-44,.09A19.77,19.77,0,0,1,147,184.63c-19.66-12.8-39.72-25-59.51-37.59-9.25-5.89-19.15-10.88-27.34-18.31C38.52,109.16,38.37,84,59.59,64c10.25-9.63,10.24-9.62,22-2.08,4.91,3.13,9.82,6.27,14.8,9.28,2.91,1.75,3.25,3,.26,5.32C88.56,83,83.06,90.87,86,102c1.81,6.77,6.46,11.53,12.24,15.17q34.23,21.54,68.51,43,19.88,12.45,39.8,24.85C207.4,185.47,208.12,186.12,209.36,187.07Z"/><path class="cls-2" d="M914,121.2c-11.16,0-22.32.14-33.47-.07-4.08-.08-5,1.35-4.81,5.27,1.11,18.32,12.77,29.73,31.64,30.61a79.74,79.74,0,0,0,31-4.17c3.1-1.11,4.68-.49,5.48,2.65,4.15,16.33,4.13,14.08-10,17.51a89.6,89.6,0,0,1-43,.11c-18.09-4.48-30.38-15.54-35.57-33.55-5.12-17.77-4.56-35.49,2.36-52.83,8.7-21.79,30.61-32.9,53.74-30.12,25.61,3.07,41,20.94,41.85,47.63.13,4.16-.24,8.33-.07,12.48.14,3.44-1.09,4.62-4.62,4.56C937,121.07,925.5,121.2,914,121.2Zm-10.35-16.25c8,0,16,0,24,0,1.78,0,3.72.35,4-2.48,1.06-12.14-8.52-25.79-20.46-27.87-21.31-3.7-31.87,8.33-35.08,26.76-.54,3.11,1,3.66,3.65,3.63C887.68,104.89,895.67,104.95,903.65,104.95Z"/><path class="cls-1" d="M421,130.57q0,17.74,0,35.49c0,2,.34,3.85-2.55,4.45-18.67,3.9-37.38,7-56.47,3.36-17.43-3.29-27.44-13.22-29.31-28.85-2.16-18.06,5.19-31.57,21.38-38.91,12.72-5.77,26.2-6,39.72-4.54,4.74.52,6-.55,5.7-5.24-.76-13.78-6.81-20.32-20.67-21.44A77.83,77.83,0,0,0,349.61,78c-3.42,1-4.68.08-5.85-3C339.17,62.88,340,61,352.64,58.6s25.43-3.64,38.2-.84c19.86,4.35,29.65,16.78,30.07,38.32.22,11.49,0,23,0,34.49Zm-21.58,6.61c0-3.49,0-7,0-10.48-.15-9.05,1.34-7.22-7.67-8.21-8.77-1-17.65-1.24-26.08,2.27-8.66,3.6-12.74,11.61-11.16,21.61,1.34,8.51,7.17,13.73,16.35,14.73a97.5,97.5,0,0,0,24.86-.87c3-.44,3.84-1.76,3.75-4.57C399.26,146.84,399.38,142,399.39,137.19Z"/><path class="cls-2" d="M757.61,74.74c2.2-.29,2.74-2.34,3.86-3.63a43.22,43.22,0,0,1,51.34-10.83c10.35,5,14.88,14.28,17.19,24.94a67.21,67.21,0,0,1,1.26,14.39c0,22.65-.13,45.3.15,67.95.06,4.49-1.55,6-5.6,6-3.66,0-7.32,0-11,0-4.09,0-5.61-1.7-5.55-6.1.27-19.32.14-38.64.1-58A109.25,109.25,0,0,0,809,98c-.86-7.93-2.38-15.9-10.47-19.72-9-4.27-18.09-2.69-26.08,2.81-10.93,7.52-13.87,19.2-14.12,31.53-.37,18.31-.24,36.64,0,55,.05,4-1.14,5.87-5.09,5.92a4.44,4.44,0,0,0-.49.08c-14.85,1.9-16.48.5-16.49-14.07,0-31.81.1-63.62-.12-95.43,0-4.53,1.72-5.72,5.66-6,12.82-.9,13.3-.56,14.86,11.93C756.81,71.6,756.2,73.37,757.61,74.74Z"/><path class="cls-1" d="M471.52,175.42a99.88,99.88,0,0,1-27.06-4.2c-2.59-.79-3.72-1.94-2.74-4.63a16.11,16.11,0,0,0,.4-2c2.78-12.29,2.77-12.26,14.53-9.42,9.16,2.21,18.38,3,27.69.83a23,23,0,0,0,9.33-4.57c8.11-6.61,7.52-18-1.19-23.79A45.31,45.31,0,0,0,482.07,123,191.8,191.8,0,0,1,459,113.54c-22-11.11-17.88-41.44,0-51.21,9.88-5.4,20.56-6.41,31.48-6,8,.32,15.81,2,23.55,4.12,3.65,1,4.12,2.56,3.36,6-2.72,12.33-2.57,12.29-14.37,9.43-9.51-2.3-19.09-3.32-28.54.19-9.21,3.42-11,14.29-3.56,20.82a27.64,27.64,0,0,0,9.19,4.92c6.74,2.41,13.55,4.62,20.24,7.15,12.47,4.72,20.13,13.28,20.9,27.07.81,14.35-5.06,25.18-17.44,32.38C493.83,174.28,482.84,175.7,471.52,175.42Z"/><path class="cls-1" d="M548,112.91c0-10.66-.16-21.33.09-32,.09-3.62-1.1-4.63-4.5-4.35-3.14.26-6.33.07-9.49,0-1.44,0-3.05.38-3.8-1.53s.47-2.79,1.47-3.9q13.33-14.88,26.66-29.77c2.66-3,5.29-6,8-9,.65-.73,1.34-1.73,2.47-1.32s.77,1.69.78,2.61c0,6.5.42,13-.06,19.48-.37,5.06,1.46,6.2,6.13,5.88,6-.41,12-.1,18-.1,1,0,2.25-.38,3,.08,5.05,3.27,2,8.33,2.45,12.59.23,2.27.32,5.15-3.69,5-7.32-.2-14.66,0-22-.12-2.67,0-3.83.62-3.79,3.61.24,19.65.3,39.3.45,59a30.33,30.33,0,0,0,.3,4c1.42,10.09,5.36,13.66,15.53,13.62a49.37,49.37,0,0,0,10.38-1.22c2.71-.6,3.49.42,4.12,2.75,3.41,12.8,2,15-11,16-8,.66-16,.47-23.67-2.38-12.29-4.57-17-14.36-17.5-26.53-.42-10.81-.09-21.65-.09-32.48Z"/><path class="cls-1" d="M278.25,80c0-21.81.05-43.62-.07-65.42,0-3.3.76-4.59,4.31-4.87,17.62-1.41,17.62-1.52,17.62,16q0,55.19,0,110.37c0,1,0,2,0,3,.33,14.41,4.27,18.19,18.48,17,3.68-.31,5,.75,5.43,4.26,1.57,14.42,3.21,12.84-11.48,14a42.49,42.49,0,0,1-5,0c-19.14-.8-29.05-10.72-29.25-29.91C278.08,122.92,278.26,101.44,278.25,80Z"/><path class="cls-2" d="M617.05,80.78c0-21.83.09-43.66-.1-65.49,0-4,1.2-5.41,5.21-5.8,16.15-1.58,16.71-1.21,16.71,14.78q0,53.74,0,107.48c0,3.5,0,7,.16,10.49.51,10.58,4.37,14.16,15,14,8.4-.11,8.4-.11,9.15,8.38.13,1.49.23,3,.41,4.48.32,2.6-.64,4.23-3.38,4.48-7.31.67-14.68,1.3-21.91-.2C627,171.06,620.21,164,618,152.69a52.47,52.47,0,0,1-.88-9.93C617,122.11,617.06,101.44,617.05,80.78Z"/><path class="cls-2" d="M706.09,115.92c0,17.32-.15,34.63.11,51.94.06,4.22-1.53,5.43-5.3,5.8-15.17,1.5-16.11.72-16.11-14.43,0-25.64-.11-51.28.1-76.92,0-4.64-1-6.41-6-6.2-10,.41-10.24-.11-9.61-10.16.44-7,.44-7,7.47-7,8.32,0,16.65.18,25-.07,3.59-.11,4.46,1.08,4.43,4.54C706,81,706.08,98.44,706.09,115.92Z"/><path class="cls-2" d="M3.65,187c8-5.08,15.36-9.78,22.75-14.44,13.08-8.23,26.22-16.35,39.22-24.7,2.9-1.86,5-2.12,8,0,7,4.81,14.19,9.25,21.43,13.67,3,1.83,3.3,3,.07,5-11,6.82-21.9,13.84-32.79,20.86a4.76,4.76,0,0,1-2.8.69q-26.94,0-53.89-.12A10.32,10.32,0,0,1,3.65,187Z"/><path class="cls-2" d="M704.1,22.57c-.4,13.17,2.17,12-12.41,12.32-12.56.24-12.69.06-12.52-12.39s-1.76-11.25,11.48-11.68c.5,0,1,0,1.49,0C705.84,11.32,703.79,9.77,704.1,22.57Z"/><path class="cls-2" d="M971.09,66.3c-.6-2.35,1.93-6.79-3.88-6.74-.26,0-.78-.77-.74-1.13.1-1,.92-1.32,1.8-1.32,2.33,0,4.67,0,7,.07,1.22.05,3-.74,3.38,1.08.31,1.65-1.41,1.43-2.48,1.63-1.79.33-1.79,1.7-1.8,3.06,0,2.33.07,4.67,0,7-.07,1.35.71,3.47-1.49,3.61s-1.61-2-1.72-3.36C971,69,971.09,67.86,971.09,66.3Z"/></g></g></g></svg>